# xmcd
#
# Track frame offsets:
#	150
#	16040
#	32357
#	49105
#	69430
#	80367
#	95735
#	114770
#
# Disc length: 1758 seconds
#
# Revision: 0
# Processed by: cddbd v1.5.1PL0 Copyright (c) Steve Scherf et al.
# Submitted via: dBpowerAMP V4.0
#
DISCID=5106dc08
DTITLE=Larry Evans - Special memories
DYEAR=1900
DGENRE=
TTITLE0=When I Think About You
TTITLE1=Rock Candy
TTITLE2=The Bigger The Love
TTITLE3=Del Rio  
TTITLE4=Darling Don't You Dare
TTITLE5=You and Me and the D.O.G.
TTITLE6=Special Memories
TTITLE7=Pride
EXTD=Special Memories ... Album Name\n\nLocal Vancouver BC Artist.  Artist Larry Evans tracks..\n\n01   When I Think About You\n02 Rock Candy\n03 The Bigger The Love\n04 Del Rio  ...won best writer award in canada Not sure what year ..1990 something\n05
EXTD=Darling Don't You Dare\n06 You and Me and the D.O.G.\n07 Special memories\n08 Pride\nMusic by Cactus Moon [SOCAN] except #3 By Minkey Music, Tosoff Music and Ted James Music\nRecorded at Bathgate Sound , Richmond, B.C.   \n
EXTT0=
EXTT1=
EXTT2=
EXTT3=
EXTT4=
EXTT5=
EXTT6=
EXTT7=
PLAYORDER=
